<svg width="300" height="300" xmlns="http://www.w3.org/2000/svg">
  <!-- Background Circle -->
  <circle cx="150" cy="150" r="140" fill="#667eea" opacity="0.1"/>
  
  <!-- Hexagon Shape -->
  <polygon points="150,30 240,82.5 240,187.5 150,240 60,187.5 60,82.5" 
           fill="none" stroke="#ffffff" stroke-width="3"/>
  
  <!-- Inner Hexagon -->
  <polygon points="150,60 210,95 210,165 150,200 90,165 90,95" 
           fill="#ffffff" opacity="0.2"/>
  
  <!-- Neural Network Nodes -->
  <circle cx="150" cy="100" r="8" fill="#ffffff"/>
  <circle cx="120" cy="150" r="8" fill="#ffffff"/>
  <circle cx="180" cy="150" r="8" fill="#ffffff"/>
  <circle cx="150" cy="180" r="8" fill="#ffffff"/>
  
  <!-- Connections -->
  <line x1="150" y1="100" x2="120" y2="150" stroke="#ffffff" stroke-width="2" opacity="0.6"/>
  <line x1="150" y1="100" x2="180" y2="150" stroke="#ffffff" stroke-width="2" opacity="0.6"/>
  <line x1="120" y1="150" x2="150" y2="180" stroke="#ffffff" stroke-width="2" opacity="0.6"/>
  <line x1="180" y1="150" x2="150" y2="180" stroke="#ffffff" stroke-width="2" opacity="0.6"/>
  
  <!-- Center Node (larger) -->
  <circle cx="150" cy="150" r="12" fill="#ffffff"/>
  <circle cx="150" cy="150" r="6" fill="#667eea"/>
  
  <!-- Text -->
  <text x="150" y="270" font-family="Arial, sans-serif" font-size="24" 
        font-weight="bold" fill="#ffffff" text-anchor="middle">
    nascent-nexus
  </text>
</svg>
